<?xml version="1.0" encoding="UTF-8"?>
<svg width="41px" height="65px" viewBox="0 0 41 65" version="1.1" xmlns="http://www.w3.org/2000/svg" xmlns:xlink="http://www.w3.org/1999/xlink">
    <!-- Generator: Sketch 57.1 (83088) - https://sketch.com -->
    <title>Group 3</title>
    <desc>Created with Sketch.</desc>
    <g id="va_1" stroke="none" stroke-width="1" fill="none" fill-rule="evenodd">
        <g id="desktop_light" transform="translate(-944.000000, -328.000000)" stroke="#000000" stroke-width="2">
            <g id="Group-3" transform="translate(944.000000, 328.000000)">
                <rect id="Rectangle" transform="translate(21.000000, 3.500000) rotate(180.000000) translate(-21.000000, -3.500000) " x="12" y="1" width="18" height="5" rx="2.5"></rect>
                <path d="M20.5,8.24960587 C9.72888801,8.24960587 1,16.9176654 1,27.6067487 C1,35.1550849 5.39175211,41.9167241 12.141197,45.1005686 L12.7145901,45.3710493 L12.7140149,58.6004104 L12.3786943,58.898711 C11.8499291,59.3690996 11.5428571,60.0385153 11.5428571,60.75981 C11.5428571,62.1348863 12.6575767,63.2496059 14.0326531,63.2496059 L26.9673469,63.2496059 C28.3424233,63.2496059 29.4571429,62.1348863 29.4571429,60.75981 C29.4571429,60.0385153 29.1500709,59.3690996 28.6213057,58.898711 L28.2859851,58.6004104 L28.2854099,45.3710493 L28.858803,45.1005686 C35.6082479,41.9167241 40,35.1550849 40,27.6067487 C40,16.9176654 31.271112,8.24960587 20.5,8.24960587 Z" id="Combined-Shape" transform="translate(20.500000, 35.749606) rotate(180.000000) translate(-20.500000, -35.749606) "></path>
            </g>
        </g>
    </g>
</svg>