<?xml version="1.0" encoding="UTF-8"?>
<svg width="73px" height="54px" viewBox="0 0 73 54" version="1.1" xmlns="http://www.w3.org/2000/svg" xmlns:xlink="http://www.w3.org/1999/xlink">
    <!-- Generator: Sketch 57.1 (83088) - https://sketch.com -->
    <title>Group 2</title>
    <desc>Created with Sketch.</desc>
    <g id="va_1" stroke="none" stroke-width="1" fill="none" fill-rule="evenodd">
        <g id="desktop_light" transform="translate(-91.000000, -885.000000)" stroke="#000000" stroke-width="2">
            <g id="Group-2" transform="translate(91.000000, 885.000000)">
                <path d="M46,1 L8,1 C4.13400675,1 1,4.13400675 1,8 L1,46 C1,49.8659932 4.13400675,53 8,53 L46,53 C49.8659932,53 53,49.8659932 53,46 L53,27.4941786 L53.4850251,27.2027948 L66.0096006,19.6785264 C67.2016867,18.9622488 67.9416625,17.7204388 68.0277401,16.359193 L68.082474,15.4936236 L68.9470847,15.4254001 C69.3284161,15.3953105 69.6986008,15.2778027 70.0352734,15.0755093 C71.2187745,14.3643902 71.6017156,12.828497 70.8905965,11.6449959 C70.1794773,10.4614948 68.6435841,10.0785537 67.460083,10.7896728 C67.0742767,11.0214886 66.7659875,11.3446452 66.5556735,11.7288766 L66.1393591,12.4894586 L65.3274657,12.185104 C64.1396609,11.7398314 62.8131993,11.8493961 61.7052428,12.5151235 L53,17.744227 L53,8 C53,4.13400675 49.8659932,1 46,1 Z" id="Combined-Shape"></path>
                <path d="M65.8214286,19 L34.1785714,19 C31.8708102,19 30,20.8708102 30,23.1785714 C30,25.4863327 31.8708102,27.3571429 34.1785714,27.3571429 L65.8214286,27.3571429 C67.212156,27.3571429 68.4860185,26.6738196 69.2608949,25.5513375 L69.7536121,24.8375897 L70.5298659,25.2244182 C70.872228,25.3950266 71.2500592,25.4849619 71.6428327,25.4849619 C73.0235446,25.4849619 74.1428327,24.3656738 74.1428327,22.9849619 C74.1428327,21.6042501 73.0235446,20.4849619 71.6428327,20.4849619 C71.1927382,20.4849619 70.7620448,20.6031805 70.3838767,20.8242113 L69.6352969,21.2617396 L69.0961227,20.5827007 C68.3073076,19.5892629 67.1138781,19 65.8214286,19 Z" id="Rectangle-2" transform="translate(52.071416, 23.178571) rotate(-31.000000) translate(-52.071416, -23.178571) "></path>
            </g>
        </g>
    </g>
</svg>